<svg xmlns="http://www.w3.org/2000/svg" version="1.1" xmlns:xlink="http://www.w3.org/1999/xlink" xmlns:svgjs="http://svgjs.dev/svgjs" width="200" height="100" preserveAspectRatio="none" viewBox="0 0 200 100"><g mask="url(&quot;#SvgjsMask1967&quot;)" fill="none"><use xlink:href="#SvgjsG1971" transform="translate(0, 0)" fill="rgba(52, 243, 15, 1)"></use></g><defs><mask id="SvgjsMask1967"><rect width="200" height="100" fill="#ffffff"></rect></mask><g id="SvgjsG1970"><path d="M15.07 12.15L0.02 12.15c0 1.33 1.02 1.95 1.83 1.95l11.39 0c0.97 0 1.83-0.77 1.82-1.95zM12.85 2.17L1.87 2.17l0 7.2c0 0.98 0.84 1.75 1.75 1.75l7.13 0c1.03 0 1.73-0.86 1.73-1.75V8.77c2.03 0 3.5-1.53 3.5-3.3 0-1.81-1.45-3.3-3.13-3.3z m1.83 3.3c0 1.04-0.76 2.02-2.21 1.93L12.47 3.52l0.38 0 0 0c1.39 0 1.84 1.32 1.83 1.95l0 0z"></path></g><g id="SvgjsG1969"><path d="M11.99 8.24a46.75 46.75 0 0 1-0.52-0.41c-0.15-0.12-0.29-0.23-0.44-0.34-0.88-0.69-1.8-1.32-2.82-1.41A2.81 2.81 0 0 0 7.95 6.07c-0.09 0-0.17 0.01-0.25 0.01-1.02 0.09-1.94 0.72-2.83 1.41l0.1 0.08c0.11 0.08 0.21 0.17 0.32 0.25C6.17 7.14 7.02 6.58 7.95 6.58c0.93 0 1.78 0.56 2.66 1.23a35.1 35.1 0 0 1 0.54 0.42c0.14 0.11 0.28 0.23 0.43 0.34C12.53 9.32 13.53 10 14.66 10c0.44 0 0.85-0.1 1.25-0.27l0-0.56c-0.41 0.2-0.82 0.32-1.25 0.32-0.93 0-1.79-0.56-2.67-1.25z"></path><path d="M11.57 7.5c0.03 0.02 0.06 0.05 0.09 0.07 0.11 0.09 0.22 0.17 0.33 0.25 0.32-0.25 0.63-0.48 0.95-0.67l0 1.37c0.17 0.11 0.34 0.21 0.51 0.3V6.88c0.31-0.15 0.63-0.25 0.96-0.29l0 2.54c0.08 0.01 0.16 0.02 0.24 0.02 0.09 0 0.18-0.01 0.27-0.02V6.59c0.34 0.04 0.67 0.14 1 0.3V6.34C15.51 6.17 15.1 6.07 14.66 6.07c-1.13 0-2.13 0.68-3.09 1.43z m-7.24 1.08c-0.03-0.03-0.07-0.05-0.11-0.08-0.1-0.08-0.21-0.16-0.31-0.25-0.88 0.68-1.73 1.24-2.66 1.24C0.82 9.49 0.41 9.36 0 9.15l0 0.56C0.4 9.89 0.82 10 1.25 10c1.12 0 2.12-0.68 3.08-1.42z"></path><path d="M0.99 9.13c0.08 0.01 0.17 0.02 0.25 0.02 0.09 0 0.17-0.01 0.26-0.02L1.5 6.59c0.33 0.03 0.65 0.14 0.97 0.29 0 0.01-0.01 0.02-0.01 0.03l0 1.91a5.82 5.82 0 0 0 0.51-0.31L2.97 7.15c0.49 0.3 0.97 0.68 1.47 1.08C5.53 9.1 6.65 10 7.95 10c1.12 0 2.12-0.68 3.08-1.42l-0.11-0.08c-0.1-0.08-0.21-0.16-0.31-0.25-0.31 0.24-0.62 0.47-0.93 0.66V7.56A5.82 5.82 0 0 0 9.17 7.26l0 1.89c0 0.01 0 0.02 0.01 0.03-0.32 0.15-0.64 0.25-0.97 0.29V6.94a1.97 1.97 0 0 0-0.27-0.02c-0.08 0-0.16 0.01-0.24 0.01l0 2.54c-0.33-0.03-0.65-0.14-0.97-0.28 0-0.01 0.01-0.02 0.01-0.04L6.74 7.25a5.63 5.63 0 0 0-0.51 0.3l0 1.37c-0.49-0.3-0.98-0.69-1.48-1.08C3.67 6.97 2.54 6.07 1.24 6.07c-0.43 0-0.84 0.1-1.24 0.25l0 0.55c0.32-0.14 0.65-0.24 0.99-0.28L0.99 9.13z"></path></g><g id="SvgjsG1968"><path d="M15.96 4.77l-1.31 10.33L10.22 15.1 8.92 4.77l5.4 0L15.39 1.04 16 1.21l-1.02 3.56 0.98 0zM8.29 10.79s0.17-1.5-2.13-1.5L2.5 9.29c-2.29 0-2.13 1.5-2.13 1.5l7.92 0zM0.37 13.6s-0.16 1.51 2.13 1.5l3.66 0c2.3 0 2.13-1.51 2.13-1.5L0.37 13.6z m7.58-0.73a0.68 0.68 0 0 0 0.68-0.68c0-0.37-0.3-0.68-0.68-0.68L0.68 11.51C0.31 11.51 0 11.82 0 12.19a0.68 0.68 0 0 0 0.68 0.68l7.27 0z"></path></g><g id="SvgjsG1971"><use xlink:href="#SvgjsG1968" transform="translate(0, 0) scale(2)" fill="rgba(52, 243, 15, 1)"></use><use xlink:href="#SvgjsG1968" transform="translate(0, 50) scale(2)" fill="rgba(52, 243, 15, 1)"></use><use xlink:href="#SvgjsG1969" transform="translate(50, 0) scale(2)" fill="rgba(52, 243, 15, 1)"></use><use xlink:href="#SvgjsG1968" transform="translate(50, 50) scale(2)" fill="rgba(52, 243, 15, 1)"></use><use xlink:href="#SvgjsG1969" transform="translate(100, 0) scale(2)" fill="rgba(52, 243, 15, 1)"></use><use xlink:href="#SvgjsG1970" transform="translate(100, 50) scale(2)" fill="rgba(52, 243, 15, 1)"></use><use xlink:href="#SvgjsG1968" transform="translate(150, 0) scale(2)" fill="rgba(52, 243, 15, 1)"></use><use xlink:href="#SvgjsG1969" transform="translate(150, 50) scale(2)" fill="rgba(52, 243, 15, 1)"></use></g></defs></svg>