<svg xmlns="http://www.w3.org/2000/svg" version="1.1" xmlns:xlink="http://www.w3.org/1999/xlink" xmlns:svgjs="http://svgjs.dev/svgjs" width="1440" height="560" preserveAspectRatio="none" viewBox="0 0 1440 560"><g mask="url(&quot;#SvgjsMask1040&quot;)" fill="none"><rect width="1440" height="560" x="0" y="0" fill="rgba(24, 106, 59, 1)"></rect><path d="M0,415.978C89.328,418.776,182.415,448.09,262.583,408.587C345.765,367.599,403.661,286.175,438.132,200.088C471.708,116.236,485.241,19.053,452.224,-65.02C421.289,-143.792,325.409,-170.03,268.267,-232.455C213.353,-292.447,194.198,-381.725,124.286,-423.28C45.71,-469.985,-55.897,-511.947,-139.405,-474.771C-223.726,-437.233,-235.911,-323.875,-280.518,-243.071C-315.129,-180.375,-351.626,-122.145,-371.974,-53.482C-395.401,25.57,-429.118,106.577,-407.734,186.206C-384.941,271.084,-328.785,349.315,-252.22,392.462C-177.138,434.773,-86.141,413.28,0,415.978" fill="#104828"></path><path d="M1440 974.126C1523.029 962.7950000000001 1604.251 965.634 1683.85 939.438 1785.76 905.9 1917.426 895.818 1967.027 800.685 2016.3029999999999 706.175 1939.2559999999999 595.685 1917.476 491.349 1897.2649999999999 394.53 1916.641 277.002 1843.753 210.14600000000002 1770.851 143.277 1655.063 175.28300000000002 1557.192 160.88099999999997 1474.902 148.772 1396.719 120.33499999999998 1314.401 132.25 1222.98 145.483 1116.1109999999999 157.608 1062.096 232.54399999999998 1008.1120000000001 307.438 1068.7350000000001 413.786 1046.8220000000001 503.47 1021.265 608.068 903.326 689.829 924.574 795.387 945.546 899.5740000000001 1048.854 977.572 1149.2649999999999 1012.392 1243.526 1045.08 1341.148 987.616 1440 974.126" fill="#208c4e"></path></g><defs><mask id="SvgjsMask1040"><rect width="1440" height="560" fill="#ffffff"></rect></mask></defs></svg>